<?xml version="1.0" encoding="iso-8859-1"?><svg viewBox="0 0 1992 2000" xmlns="http://www.w3.org/2000/svg" xmlns:xlink="http://www.w3.org/1999/xlink"><style>:root>svg{display:none}:root>svg:target{display:block}</style><svg viewBox="0 0 512 512" id="instagram" xmlns="http://www.w3.org/2000/svg"><path d="M352 0H160C71.648 0 0 71.648 0 160v192c0 88.352 71.648 160 160 160h192c88.352 0 160-71.648 160-160V160C512 71.648 440.352 0 352 0zm112 352c0 61.76-50.24 112-112 112H160c-61.76 0-112-50.24-112-112V160C48 98.24 98.24 48 160 48h192c61.76 0 112 50.24 112 112v192z"/><path d="M256 128c-70.688 0-128 57.312-128 128s57.312 128 128 128 128-57.312 128-128-57.312-128-128-128zm0 208c-44.096 0-80-35.904-80-80 0-44.128 35.904-80 80-80s80 35.872 80 80c0 44.096-35.904 80-80 80z"/><circle cx="393.6" cy="118.4" r="17.056"/></svg><svg viewBox="0 0 256 257" preserveAspectRatio="xMidYMid" id="logo" xmlns="http://www.w3.org/2000/svg"><path d="M0 36.357L104.62 22.11l.045 100.914-104.57.595L0 36.358zm104.57 98.293l.08 101.002L.081 221.275l-.006-87.302 104.494.677zm12.682-114.405L255.968 0v121.74l-138.716 1.1V20.246zM256 135.6l-.033 121.191-138.716-19.578-.194-101.84L256 135.6z"/></svg><svg viewBox="0 0 512 512" id="mail" xmlns="http://www.w3.org/2000/svg"><path d="M256 60c-57.897 0-105 47.103-105 105 0 35.943 18.126 69.015 48.487 88.467 31.003 19.863 69.06 21.974 104.426 5.703 7.525-3.462 10.82-12.37 7.357-19.896-3.462-7.525-12.369-10.82-19.896-7.358-25.86 11.898-53.454 10.545-75.703-3.709C193.961 214.298 181 190.669 181 165c0-41.355 33.645-75 75-75s75 33.645 75 75c0 8.271-6.729 15-15 15-7.558 0-14.618-5.732-14.998-14.772A17.33 17.33 0 01301 165c0-24.813-20.187-45-45-45s-45 20.187-45 45 20.187 45 45 45c11.516 0 22.031-4.353 29.999-11.494C293.966 205.648 304.483 210 316 210c24.813 0 45-20.187 45-45 0-57.897-47.103-105-105-105zm14.789 107.406C269.631 174.535 263.45 180 256 180c-8.271 0-15-6.729-15-15s6.729-15 15-15c7.691 0 14.04 5.82 14.895 13.285a15.014 15.014 0 00-.106 4.121z"/><path d="M480.999 196.976a15.101 15.101 0 00-4.393-10.583L421 130.787V15c0-8.284-6.716-15-15-15H106c-8.284 0-15 6.716-15 15v115.787l-55.606 55.606c-.052.052-.096.11-.147.163a15.066 15.066 0 00-4.246 10.42l-.001.029V467c0 24.845 20.216 45 45 45h360c24.839 0 45-20.207 45-45V197.005l-.001-.029zM421 173.213L444.787 197 421 220.787v-47.574zm-300-36.208V30h270v220.787L309.787 332H202.213L121 250.787V137.005zm-30 36.208v47.574L67.213 197 91 173.213zM61 460.787V233.213L174.787 347 61 460.787zM82.214 482l119.999-120h107.574l119.999 120H82.214zM451 460.787L337.213 347 451 233.213v227.574z"/></svg><svg viewBox="0 0 512 512" id="placeholder" xmlns="http://www.w3.org/2000/svg"><path d="M256 0C156.748 0 76 80.748 76 180c0 33.534 9.289 66.26 26.869 94.652l142.885 230.257A15 15 0 00258.499 512h.119a14.997 14.997 0 0012.75-7.292L410.611 272.22C427.221 244.428 436 212.539 436 180 436 80.748 355.252 0 256 0zm128.866 256.818L258.272 468.186l-129.905-209.34C113.734 235.214 105.8 207.95 105.8 180c0-82.71 67.49-150.2 150.2-150.2S406.1 97.29 406.1 180c0 27.121-7.411 53.688-21.234 76.818z"/><path d="M256 90c-49.626 0-90 40.374-90 90 0 49.309 39.717 90 90 90 50.903 0 90-41.233 90-90 0-49.626-40.374-90-90-90zm0 150.2c-33.257 0-60.2-27.033-60.2-60.2 0-33.084 27.116-60.2 60.2-60.2s60.1 27.116 60.1 60.2c0 32.683-26.316 60.2-60.1 60.2z"/></svg><svg viewBox="0 0 512 512" id="ribbon" xmlns="http://www.w3.org/2000/svg"><path d="M509.861 408.064l-92.864-161.216c9.6-21.728 15.008-45.664 15.008-70.848 0-97.056-78.944-176-176-176s-176 78.944-176 176c0 25.184 5.408 49.12 15.008 70.816L2.149 408c-3.232 5.632-2.784 12.64 1.184 17.76s10.592 7.424 16.832 5.696l93.952-25.28 24.992 93.92c1.664 6.272 6.944 10.912 13.344 11.744.736.128 1.44.16 2.112.16a16.002 16.002 0 0013.856-8l87.584-151.616L343.589 504c2.88 4.992 8.192 8 13.856 8 .672 0 1.408-.032 2.112-.128 6.4-.832 11.68-5.472 13.344-11.744l24.992-93.92 93.952 25.28c6.24 1.728 12.896-.576 16.832-5.696s4.416-12.128 1.184-17.728zm-349.792 46.432l-19.168-72.032a16.105 16.105 0 00-7.456-9.76c-3.68-2.112-8.096-2.656-12.16-1.6l-72.128 19.392 64.32-111.648c25.504 35.264 63.616 60.8 107.808 69.696l-61.216 105.952zM112.005 176c0-79.392 64.608-144 144-144s144 64.608 144 144-64.608 144-144 144-144-64.608-144-144zm278.72 195.136c-4.096-1.088-8.48-.512-12.16 1.6s-6.368 5.632-7.456 9.76l-19.168 72.032-61.216-105.952c44.16-8.864 82.304-34.432 107.808-69.696l64.32 111.648-72.128-19.392z"/><path d="M351.173 136.064c-1.696-5.152-5.888-9.056-11.136-10.432l-45.376-11.872-24.896-41.92c-5.76-9.728-21.76-9.728-27.488 0l-24.896 41.92-45.408 11.872a15.99 15.99 0 00-11.168 10.432c-1.728 5.152-.704 10.784 2.688 15.04l30.432 38.08-3.328 49.76c-.352 5.536 2.176 10.88 6.72 14.112s10.432 3.84 15.52 1.664l43.168-18.336 43.168 18.336c2.016.864 4.16 1.28 6.272 1.28 3.264 0 6.528-.992 9.28-2.944a15.964 15.964 0 006.688-14.112l-3.328-49.76 30.4-38.08c3.392-4.224 4.384-9.888 2.688-15.04zm-61.952 38.016c-2.496 3.136-3.744 7.072-3.456 11.04l2.016 29.984-25.504-10.848c-2.016-.864-4.16-1.28-6.272-1.28s-4.256.416-6.272 1.28l-25.472 10.848 1.984-29.984c.288-3.968-.96-7.904-3.456-11.04l-18.912-23.712 27.936-7.328c4.064-1.056 7.552-3.712 9.696-7.296l14.496-24.416 14.496 24.416c2.144 3.584 5.632 6.24 9.696 7.296l27.936 7.328-18.912 23.712z"/></svg><svg viewBox="0 0 24 24" id="telegram" xmlns="http://www.w3.org/2000/svg"><path d="M9.417 15.181l-.397 5.584c.568 0 .814-.244 1.109-.537l2.663-2.545 5.518 4.041c1.012.564 1.725.267 1.998-.931L23.93 3.821l.001-.001c.321-1.496-.541-2.081-1.527-1.714l-21.29 8.151c-1.453.564-1.431 1.374-.247 1.741l5.443 1.693L18.953 5.78c.595-.394 1.136-.176.691.218z"/></svg><svg viewBox="0 0 511.999 511.999" id="telephone" xmlns="http://www.w3.org/2000/svg"><path d="M498.827 377.633l-63.649-63.649c-17.548-17.547-46.102-17.547-63.649 0l-28.931 28.931c-13.294 13.294-34.926 13.29-48.215.005l-125.4-125.507c-13.325-13.325-13.327-34.892 0-48.219l28.931-28.931c17.471-17.47 17.715-45.935-.017-63.665l-63.632-63.432C116.717-4.381 88.164-4.381 70.663 13.12L47.471 36.111c-63.28 63.279-63.28 166.242-.003 229.519L246.16 464.426c63.428 63.429 166.088 63.434 229.521 0l23.146-23.145c17.548-17.548 17.548-46.1 0-63.648zM91.833 34.382c5.849-5.849 15.365-5.85 21.233.016l63.632 63.432c5.863 5.863 5.863 15.352 0 21.216l-10.609 10.608-84.81-84.81 10.554-10.462zM267.38 443.213L68.687 244.415c-48.958-48.958-51.649-125.833-8.276-178.006l84.564 84.564c-22.22 25.189-21.294 63.572 2.787 87.653l125.396 125.501.004.004c24.055 24.056 62.436 25.042 87.656 2.792l84.566 84.566c-52.007 43.298-128.709 41.019-178.004-8.276zm210.232-23.148l-10.609 10.609-84.865-84.866 10.607-10.608c5.85-5.849 15.367-5.85 21.217 0l63.649 63.649c5.85 5.85 5.85 15.368.001 21.216z"/></svg><svg viewBox="0 0 512 512" id="whatsapp" xmlns="http://www.w3.org/2000/svg"><path d="M256.064 0h-.128C114.784 0 0 114.816 0 256c0 56 18.048 107.904 48.736 150.048l-31.904 95.104 98.4-31.456C155.712 496.512 204 512 256.064 512 397.216 512 512 397.152 512 256S397.216 0 256.064 0zm148.96 361.504c-6.176 17.44-30.688 31.904-50.24 36.128-13.376 2.848-30.848 5.12-89.664-19.264-75.232-31.168-123.68-107.616-127.456-112.576-3.616-4.96-30.4-40.48-30.4-77.216s18.656-54.624 26.176-62.304c6.176-6.304 16.384-9.184 26.176-9.184 3.168 0 6.016.16 8.576.288 7.52.32 11.296.768 16.256 12.64 6.176 14.88 21.216 51.616 23.008 55.392 1.824 3.776 3.648 8.896 1.088 13.856-2.4 5.12-4.512 7.392-8.288 11.744-3.776 4.352-7.36 7.68-11.136 12.352-3.456 4.064-7.36 8.416-3.008 15.936 4.352 7.36 19.392 31.904 41.536 51.616 28.576 25.44 51.744 33.568 60.032 37.024 6.176 2.56 13.536 1.952 18.048-2.848 5.728-6.176 12.8-16.416 20-26.496 5.12-7.232 11.584-8.128 18.368-5.568 6.912 2.4 43.488 20.48 51.008 24.224 7.52 3.776 12.48 5.568 14.304 8.736 1.792 3.168 1.792 18.048-4.384 35.52z"/></svg></svg>